<svg width="290" height="290" viewBox="0 0 290 290" fill="none" xmlns="http://www.w3.org/2000/svg">
<rect width="290" height="290" fill="white"/>
<path fill-rule="evenodd" clip-rule="evenodd" d="M145 262.812C149.169 262.812 160.279 258.716 171.952 235.371C177.498 224.279 182.156 210.54 185.401 194.844H104.599C107.844 210.54 112.502 224.279 118.048 235.371C129.721 258.716 140.831 262.812 145 262.812ZM100.666 167.656C99.3526 152.581 99.3526 137.419 100.666 122.344H189.334C190.638 137.42 190.638 152.58 189.334 167.656H100.666ZM213.096 194.844C209.036 217.029 202.348 236.676 193.774 252.264C219.304 240.606 239.86 220.255 251.774 194.844H213.096ZM260.638 167.656H216.594C217.776 152.575 217.776 137.425 216.594 122.344H260.619C263.551 137.306 263.551 152.694 260.619 167.656H260.638ZM73.3881 167.656H29.3625C26.4305 152.694 26.4305 137.306 29.3625 122.344H73.4062C72.2244 137.425 72.2244 152.575 73.4062 167.656H73.3881ZM38.2256 194.844H76.9044C80.9644 217.029 87.6525 236.676 96.2256 252.264C70.6958 240.606 50.1395 220.255 38.2256 194.844ZM104.599 95.1562H185.401C182.156 79.46 177.498 65.7213 171.952 54.6287C160.279 31.2837 149.169 27.1875 145 27.1875C140.831 27.1875 129.721 31.2837 118.048 54.6287C112.502 65.7213 107.844 79.46 104.599 95.1562ZM213.096 95.1562H251.774C239.86 69.7449 219.304 49.3942 193.774 37.7363C202.348 53.3237 209.036 72.9713 213.096 95.1562ZM96.2438 37.7363C87.6706 53.3237 80.9825 72.9713 76.9225 95.1562H38.2256C50.1395 69.7449 70.714 49.3942 96.2438 37.7363ZM145 0C183.456 0 220.338 15.2767 247.53 42.4695C274.723 69.6623 290 106.544 290 145C290 183.456 274.723 220.338 247.53 247.53C220.338 274.723 183.456 290 145 290C106.544 290 69.6623 274.723 42.4695 247.53C15.2767 220.338 0 183.456 0 145C0 106.544 15.2767 69.6623 42.4695 42.4695C69.6623 15.2767 106.544 0 145 0Z" fill="black"/>
</svg>
